<svg viewBox="0 0 400 400" fill="none" xmlns="http://www.w3.org/2000/svg">
  <!-- Background crystals -->
  <polygon points="120,320 80,220 140,180 180,240" fill="#8B5CF6" opacity="0.15"/>
  <polygon points="280,340 320,240 260,200 220,280" fill="#6366F1" opacity="0.12"/>

  <!-- Main crystal cluster -->
  <polygon points="200,60 160,180 200,200 240,180" fill="#A78BFA" opacity="0.35"/>
  <polygon points="200,60 240,180 260,160 220,80" fill="#818CF8" opacity="0.25"/>
  <polygon points="200,60 160,180 140,160 180,80" fill="#C4B5FD" opacity="0.4"/>

  <!-- Center large crystal -->
  <polygon points="200,100 150,260 200,300 250,260" fill="#8B5CF6" opacity="0.25"/>
  <polygon points="200,100 250,260 280,220 230,120" fill="#6366F1" opacity="0.18"/>
  <polygon points="200,100 150,260 120,220 170,120" fill="#A78BFA" opacity="0.3"/>

  <!-- Left crystal -->
  <polygon points="100,140 70,280 110,320 140,260" fill="#7C3AED" opacity="0.22"/>
  <polygon points="100,140 140,260 160,230 120,150" fill="#8B5CF6" opacity="0.15"/>

  <!-- Right crystal -->
  <polygon points="300,160 330,300 290,340 260,280" fill="#6366F1" opacity="0.25"/>
  <polygon points="300,160 260,280 240,250 280,170" fill="#818CF8" opacity="0.18"/>

  <!-- Small accent crystals -->
  <polygon points="160,280 140,340 170,360 185,320" fill="#A78BFA" opacity="0.12"/>
  <polygon points="240,290 260,350 230,370 215,330" fill="#8B5CF6" opacity="0.12"/>

  <!-- Sparkle accents -->
  <circle cx="180" cy="140" r="4" fill="#C4B5FD" opacity="0.6"/>
  <circle cx="220" cy="180" r="3" fill="#A78BFA" opacity="0.5"/>
  <circle cx="150" cy="200" r="3.5" fill="#DDD6FE" opacity="0.5"/>
  <circle cx="260" cy="200" r="3" fill="#818CF8" opacity="0.4"/>
  <circle cx="200" cy="250" r="4" fill="#C4B5FD" opacity="0.35"/>
  <circle cx="130" cy="260" r="2" fill="#E9D5FF" opacity="0.5"/>
  <circle cx="270" cy="240" r="2.5" fill="#DDD6FE" opacity="0.45"/>
</svg>
